<?xml version="1.0" encoding="UTF-8" standalone="no"?>
<svg
   xmlns:osb="http://www.openswatchbook.org/uri/2009/osb"
   xmlns:dc="http://purl.org/dc/elements/1.1/"
   xmlns:cc="http://creativecommons.org/ns#"
   xmlns:rdf="http://www.w3.org/1999/02/22-rdf-syntax-ns#"
   xmlns:svg="http://www.w3.org/2000/svg"
   xmlns="http://www.w3.org/2000/svg"
   xmlns:sodipodi="http://sodipodi.sourceforge.net/DTD/sodipodi-0.dtd"
   xmlns:inkscape="http://www.inkscape.org/namespaces/inkscape"
   width="128"
   height="128"
   viewBox="0 0 33.866666 33.866668"
   version="1.1"
   id="svg8"
   inkscape:version="1.0.1 (1.0.1+r73)"
   sodipodi:docname="backward.svg">
  <defs
     id="defs2">
    <linearGradient
       id="linearGradient3331"
       osb:paint="solid">
      <stop
         style="stop-color:#000000;stop-opacity:1;"
         offset="0"
         id="stop3329" />
    </linearGradient>
    <clipPath
       clipPathUnits="userSpaceOnUse"
       id="clipPath972">
      <path
         style="fill:#cc8703;fill-opacity:1;stroke:#000000;stroke-width:0.264583px;stroke-linecap:butt;stroke-linejoin:miter;stroke-opacity:1"
         d="M 11.413395,11.982353 12.531439,9.3504221 -0.6164044,9.8580178 2.2952172,18.744161 18.8485,16.246818 c 0,0 3.51623,-2.946445 1.203529,-2.01914 l -2.19076,0.05811 -1.92279,-0.12901 -2.730972,-0.134544 -1.609771,-0.392594 -3.0129003,-0.581277 1.2596259,-1.714467 z"
         id="path974"
         sodipodi:nodetypes="ccccccccccccc" />
    </clipPath>
    <clipPath
       clipPathUnits="userSpaceOnUse"
       id="clipPath978">
      <path
         style="fill:#cc8703;fill-opacity:1;stroke:#000000;stroke-width:0.264583px;stroke-linecap:butt;stroke-linejoin:miter;stroke-opacity:1"
         d="m 9.5403451,11.746628 0.6004519,-0.224201 0.39771,-0.292712 0.272619,-0.377821 0.178717,-0.443877 -0.157702,-1.1067456 c 0,0 -9.5958159,-8.77357829 -9.5742207,0.07836 0.021595,8.8519346 0.021595,8.8519346 0.021595,8.8519346 L 16.613804,17.353157 c 0,0 3.459072,-2.923032 -0.463262,-3.125326 l -0.753965,0.660061 -0.390831,0.250214 c 0,0 -0.158506,-0.998415 -1.597437,-1.047584 z"
         id="path980" />
    </clipPath>
    <clipPath
       clipPathUnits="userSpaceOnUse"
       id="clipPath1293">
      <path
         style="fill:#008000;fill-opacity:1;stroke:#000000;stroke-width:0.264583px;stroke-linecap:butt;stroke-linejoin:miter;stroke-opacity:1"
         d="M 0.83375516,29.66553 7.7891682,28.144489 26.814288,28.075898 33.52818,30.2538 32.751871,14.726548 6.9781732,11.47747 -1.6343189,19.953826 Z"
         id="path1295" />
    </clipPath>
    <clipPath
       clipPathUnits="userSpaceOnUse"
       id="clipPath1352">
      <path
         style="fill:#008000;fill-opacity:1;stroke:#000000;stroke-width:0.264583px;stroke-linecap:butt;stroke-linejoin:miter;stroke-opacity:1"
         d="M 5.9299672,8.597054 10.820266,8.3343276 24.376282,4.4824188 28.901235,6.1334535 33.49464,19.852705 42.116098,15.883187 36.210097,-2.1651149 10.988482,-2.3713478 Z"
         id="path1354" />
    </clipPath>
    <clipPath
       clipPathUnits="userSpaceOnUse"
       id="clipPath956">
      <path
         style="fill:#e92236;fill-opacity:1;stroke:#000000;stroke-width:0.264583px;stroke-linecap:butt;stroke-linejoin:miter;stroke-opacity:1"
         d="m 4.7401803,6.9716967 1.3861092,4.2452253 10.1338175,5.079162 -0.879149,4.727038 -9.6740386,4.83903 -0.402644,5.607067 10.9841796,0.791551 17.29352,-13.244164 -0.365334,-6.362399 c 0,0 -26.4995576,-10.9000152 -28.4764607,-5.6825103 z"
         id="path958" />
    </clipPath>
  </defs>
  <sodipodi:namedview
     id="base"
     pagecolor="#ffffff"
     bordercolor="#666666"
     borderopacity="1.0"
     inkscape:pageopacity="0.0"
     inkscape:pageshadow="2"
     inkscape:zoom="3.959798"
     inkscape:cx="56.738796"
     inkscape:cy="58.547357"
     inkscape:document-units="mm"
     inkscape:current-layer="layer1"
     inkscape:document-rotation="0"
     showgrid="false"
     units="px"
     inkscape:window-width="1325"
     inkscape:window-height="713"
     inkscape:window-x="41"
     inkscape:window-y="27"
     inkscape:window-maximized="1"
     inkscape:snap-global="false" />
  <metadata
     id="metadata5">
    <rdf:RDF>
      <cc:Work
         rdf:about="">
        <dc:format>image/svg+xml</dc:format>
        <dc:type
           rdf:resource="http://purl.org/dc/dcmitype/StillImage" />
        <dc:title />
      </cc:Work>
    </rdf:RDF>
  </metadata>
  <g
     inkscape:label="Layer 1"
     inkscape:groupmode="layer"
     id="layer1">
    <path
       style="fill:#ffffff;stroke:#ffffff;stroke-width:3;stroke-linecap:round;stroke-linejoin:round;stroke-miterlimit:4;stroke-dasharray:none;stroke-opacity:1;paint-order:normal;fill-opacity:1"
       d="M 31.193294,8.3206024 V 27.046863 L 13.867278,17.043684 Z"
       id="path915"
       sodipodi:nodetypes="cccc" />
    <path
       style="fill:#ffffff;stroke:#ffffff;stroke-width:3.1387952;stroke-linecap:round;stroke-linejoin:round;stroke-miterlimit:4;stroke-dasharray:none;stroke-opacity:1;paint-order:normal;fill-opacity:1"
       d="M 14.403541,8.6177753 V 27.965785 L 32.304813,17.630482 Z"
       id="path915-3"
       sodipodi:nodetypes="cccc"
       clip-path="url(#clipPath956)"
       transform="matrix(-0.95578074,0,0,0.95578074,32.700311,0.0396814)" />
  </g>
</svg>
