<?xml version="1.0" encoding="UTF-8" standalone="no"?>
<svg
   xmlns:dc="http://purl.org/dc/elements/1.1/"
   xmlns:cc="http://creativecommons.org/ns#"
   xmlns:rdf="http://www.w3.org/1999/02/22-rdf-syntax-ns#"
   xmlns:svg="http://www.w3.org/2000/svg"
   xmlns="http://www.w3.org/2000/svg"
   xmlns:sodipodi="http://sodipodi.sourceforge.net/DTD/sodipodi-0.dtd"
   xmlns:inkscape="http://www.inkscape.org/namespaces/inkscape"
   width="128"
   height="128"
   viewBox="0 0 33.866666 33.866668"
   version="1.1"
   id="svg8"
   inkscape:version="1.0.1 (1.0.1+r73)"
   sodipodi:docname="gallery.svg">
  <defs
     id="defs2">
    <clipPath
       clipPathUnits="userSpaceOnUse"
       id="clipPath972">
      <path
         style="fill:#cc8703;fill-opacity:1;stroke:#000000;stroke-width:0.264583px;stroke-linecap:butt;stroke-linejoin:miter;stroke-opacity:1"
         d="M 11.413395,11.982353 12.531439,9.3504221 -0.6164044,9.8580178 2.2952172,18.744161 18.8485,16.246818 c 0,0 3.51623,-2.946445 1.203529,-2.01914 l -2.19076,0.05811 -1.92279,-0.12901 -2.730972,-0.134544 -1.609771,-0.392594 -3.0129003,-0.581277 1.2596259,-1.714467 z"
         id="path974"
         sodipodi:nodetypes="ccccccccccccc" />
    </clipPath>
    <clipPath
       clipPathUnits="userSpaceOnUse"
       id="clipPath978">
      <path
         style="fill:#cc8703;fill-opacity:1;stroke:#000000;stroke-width:0.264583px;stroke-linecap:butt;stroke-linejoin:miter;stroke-opacity:1"
         d="m 9.5403451,11.746628 0.6004519,-0.224201 0.39771,-0.292712 0.272619,-0.377821 0.178717,-0.443877 -0.157702,-1.1067456 c 0,0 -9.5958159,-8.77357829 -9.5742207,0.07836 0.021595,8.8519346 0.021595,8.8519346 0.021595,8.8519346 L 16.613804,17.353157 c 0,0 3.459072,-2.923032 -0.463262,-3.125326 l -0.753965,0.660061 -0.390831,0.250214 c 0,0 -0.158506,-0.998415 -1.597437,-1.047584 z"
         id="path980" />
    </clipPath>
    <clipPath
       clipPathUnits="userSpaceOnUse"
       id="clipPath1293">
      <path
         style="fill:#008000;fill-opacity:1;stroke:#000000;stroke-width:0.264583px;stroke-linecap:butt;stroke-linejoin:miter;stroke-opacity:1"
         d="M 0.83375516,29.66553 7.7891682,28.144489 26.814288,28.075898 33.52818,30.2538 32.751871,14.726548 6.9781732,11.47747 -1.6343189,19.953826 Z"
         id="path1295" />
    </clipPath>
    <clipPath
       clipPathUnits="userSpaceOnUse"
       id="clipPath1352">
      <path
         style="fill:#008000;fill-opacity:1;stroke:#000000;stroke-width:0.264583px;stroke-linecap:butt;stroke-linejoin:miter;stroke-opacity:1"
         d="M 5.9299672,8.597054 10.820266,8.3343276 24.376282,4.4824188 28.901235,6.1334535 33.49464,19.852705 42.116098,15.883187 36.210097,-2.1651149 10.988482,-2.3713478 Z"
         id="path1354" />
    </clipPath>
  </defs>
  <sodipodi:namedview
     id="base"
     pagecolor="#ffffff"
     bordercolor="#666666"
     borderopacity="1.0"
     inkscape:pageopacity="0.0"
     inkscape:pageshadow="2"
     inkscape:zoom="3.959798"
     inkscape:cx="70.332288"
     inkscape:cy="66.612001"
     inkscape:document-units="mm"
     inkscape:current-layer="layer1"
     inkscape:document-rotation="0"
     showgrid="false"
     units="px"
     inkscape:window-width="1325"
     inkscape:window-height="713"
     inkscape:window-x="41"
     inkscape:window-y="27"
     inkscape:window-maximized="1"
     inkscape:snap-global="false" />
  <metadata
     id="metadata5">
    <rdf:RDF>
      <cc:Work
         rdf:about="">
        <dc:format>image/svg+xml</dc:format>
        <dc:type
           rdf:resource="http://purl.org/dc/dcmitype/StillImage" />
        <dc:title></dc:title>
      </cc:Work>
    </rdf:RDF>
  </metadata>
  <g
     inkscape:label="Layer 1"
     inkscape:groupmode="layer"
     id="layer1">
    <rect
       style="fill:none;fill-opacity:1;stroke:#ffffff;stroke-width:2.22454;stroke-linecap:round;stroke-linejoin:round;stroke-miterlimit:4;stroke-dasharray:none;stroke-opacity:1;paint-order:markers stroke fill"
       id="rect1333"
       width="24.698587"
       height="19.877903"
       x="2.5005922"
       y="10.81774"
       rx="5.623982"
       ry="5.0755343" />
    <rect
       style="fill:none;fill-opacity:1;stroke:#ffffff;stroke-width:2.22454;stroke-linecap:round;stroke-linejoin:round;stroke-miterlimit:4;stroke-dasharray:none;stroke-opacity:1;paint-order:markers stroke fill"
       id="rect1333-6"
       width="24.698587"
       height="19.877903"
       x="9.5966806"
       y="0.45205149"
       rx="5.623982"
       ry="5.0755343"
       transform="rotate(15.362907)"
       clip-path="url(#clipPath1352)" />
    <path
       style="fill:none;stroke:#ffffff;stroke-width:2.04621;stroke-linecap:butt;stroke-linejoin:miter;stroke-miterlimit:4;stroke-dasharray:none;stroke-opacity:1"
       d="m 2.579502,25.997343 c 0,0 6.5873062,-6.419886 10.142489,-4.031465 0,0 5.410617,3.604224 8.365686,1.617319 0,0 4.884388,-3.475923 6.076122,-6.668288"
       id="path1356" />
    <ellipse
       style="fill:none;fill-opacity:1;stroke:#ffffff;stroke-width:1.365;stroke-linecap:round;stroke-linejoin:round;stroke-miterlimit:4;stroke-dasharray:none;stroke-opacity:1;paint-order:markers stroke fill"
       id="path1358"
       cx="17.800686"
       cy="16.713947"
       rx="2.1702161"
       ry="1.9648894" />
  </g>
</svg>
