<?xml version="1.0" encoding="UTF-8" standalone="no"?>
<svg
   xmlns:dc="http://purl.org/dc/elements/1.1/"
   xmlns:cc="http://creativecommons.org/ns#"
   xmlns:rdf="http://www.w3.org/1999/02/22-rdf-syntax-ns#"
   xmlns:svg="http://www.w3.org/2000/svg"
   xmlns="http://www.w3.org/2000/svg"
   xmlns:sodipodi="http://sodipodi.sourceforge.net/DTD/sodipodi-0.dtd"
   xmlns:inkscape="http://www.inkscape.org/namespaces/inkscape"
   width="128"
   height="128"
   viewBox="0 0 33.866666 33.866668"
   version="1.1"
   id="svg8"
   inkscape:version="1.0.1 (1.0.1+r73)"
   sodipodi:docname="remove_background.svg">
  <defs
     id="defs2">
    <clipPath
       clipPathUnits="userSpaceOnUse"
       id="clipPath972">
      <path
         style="fill:#cc8703;fill-opacity:1;stroke:#000000;stroke-width:0.264583px;stroke-linecap:butt;stroke-linejoin:miter;stroke-opacity:1"
         d="M 11.413395,11.982353 12.531439,9.3504221 -0.6164044,9.8580178 2.2952172,18.744161 18.8485,16.246818 c 0,0 3.51623,-2.946445 1.203529,-2.01914 l -2.19076,0.05811 -1.92279,-0.12901 -2.730972,-0.134544 -1.609771,-0.392594 -3.0129003,-0.581277 1.2596259,-1.714467 z"
         id="path974"
         sodipodi:nodetypes="ccccccccccccc" />
    </clipPath>
    <clipPath
       clipPathUnits="userSpaceOnUse"
       id="clipPath978">
      <path
         style="fill:#cc8703;fill-opacity:1;stroke:#000000;stroke-width:0.264583px;stroke-linecap:butt;stroke-linejoin:miter;stroke-opacity:1"
         d="m 9.5403451,11.746628 0.6004519,-0.224201 0.39771,-0.292712 0.272619,-0.377821 0.178717,-0.443877 -0.157702,-1.1067456 c 0,0 -9.5958159,-8.77357829 -9.5742207,0.07836 0.021595,8.8519346 0.021595,8.8519346 0.021595,8.8519346 L 16.613804,17.353157 c 0,0 3.459072,-2.923032 -0.463262,-3.125326 l -0.753965,0.660061 -0.390831,0.250214 c 0,0 -0.158506,-0.998415 -1.597437,-1.047584 z"
         id="path980" />
    </clipPath>
    <clipPath
       clipPathUnits="userSpaceOnUse"
       id="clipPath1293">
      <path
         style="fill:#008000;fill-opacity:1;stroke:#000000;stroke-width:0.264583px;stroke-linecap:butt;stroke-linejoin:miter;stroke-opacity:1"
         d="M 0.83375516,29.66553 7.7891682,28.144489 26.814288,28.075898 33.52818,30.2538 32.751871,14.726548 6.9781732,11.47747 -1.6343189,19.953826 Z"
         id="path1295" />
    </clipPath>
    <clipPath
       clipPathUnits="userSpaceOnUse"
       id="clipPath1293-0">
      <path
         style="fill:#008000;fill-opacity:1;stroke:#000000;stroke-width:0.264583px;stroke-linecap:butt;stroke-linejoin:miter;stroke-opacity:1"
         d="M 0.83375516,29.66553 7.7891682,28.144489 26.814288,28.075898 33.52818,30.2538 32.751871,14.726548 6.9781732,11.47747 -1.6343189,19.953826 Z"
         id="path1295-9" />
    </clipPath>
  </defs>
  <sodipodi:namedview
     id="base"
     pagecolor="#ffffff"
     bordercolor="#666666"
     borderopacity="1.0"
     inkscape:pageopacity="0.0"
     inkscape:pageshadow="2"
     inkscape:zoom="2.8"
     inkscape:cx="86.470197"
     inkscape:cy="70.029439"
     inkscape:document-units="mm"
     inkscape:current-layer="layer1"
     inkscape:document-rotation="0"
     showgrid="false"
     units="px"
     inkscape:window-width="1325"
     inkscape:window-height="713"
     inkscape:window-x="41"
     inkscape:window-y="27"
     inkscape:window-maximized="1"
     inkscape:snap-global="false" />
  <metadata
     id="metadata5">
    <rdf:RDF>
      <cc:Work
         rdf:about="">
        <dc:format>image/svg+xml</dc:format>
        <dc:type
           rdf:resource="http://purl.org/dc/dcmitype/StillImage" />
        <dc:title></dc:title>
      </cc:Work>
    </rdf:RDF>
  </metadata>
  <g
     inkscape:label="Layer 1"
     inkscape:groupmode="layer"
     id="layer1">
    <path
       style="fill:#babbcf;fill-opacity:1;stroke:#ffffff;stroke-width:1.665;stroke-linecap:butt;stroke-linejoin:miter;stroke-miterlimit:4;stroke-dasharray:none;stroke-opacity:1"
       d="M 2.9035548,31.955256 31.768527,31.849698 32.374505,2.0588811 1.8378361,1.779738 Z"
       id="path949"
       sodipodi:nodetypes="ccccc" />
    <g
       id="g1134"
       style="stroke:#e3e4e4;stroke-opacity:1">
      <path
         style="fill:none;stroke:#e3e4e4;stroke-width:2.8;stroke-linecap:butt;stroke-linejoin:miter;stroke-miterlimit:4;stroke-dasharray:none;stroke-opacity:1"
         d="M 4.9396536,7.2023135 6.9156994,4.9350127"
         id="path951"
         sodipodi:nodetypes="cc" />
      <path
         style="fill:none;stroke:#e3e4e4;stroke-width:2.8;stroke-linecap:butt;stroke-linejoin:miter;stroke-miterlimit:4;stroke-dasharray:none;stroke-opacity:1"
         d="M 5.509292,14.063326 13.67891,4.5864299"
         id="path951-6"
         inkscape:transform-center-x="2.319237"
         inkscape:transform-center-y="-8.6754201"
         sodipodi:nodetypes="cc" />
      <path
         style="fill:none;stroke:#e3e4e4;stroke-width:2.8;stroke-linecap:butt;stroke-linejoin:miter;stroke-miterlimit:4;stroke-dasharray:none;stroke-opacity:1"
         d="M 5.2396763,22.829428 20.549632,4.4857"
         id="path951-6-2-9"
         inkscape:transform-center-x="2.319237"
         inkscape:transform-center-y="-8.6754201"
         sodipodi:nodetypes="cc" />
      <path
         style="fill:none;stroke:#e3e4e4;stroke-width:2.8;stroke-linecap:butt;stroke-linejoin:miter;stroke-miterlimit:4;stroke-dasharray:none;stroke-opacity:1"
         d="M 29.757368,8.4708507 25.585539,4.8032148"
         id="path951-6-2-9-1"
         inkscape:transform-center-x="2.319237"
         inkscape:transform-center-y="-8.6754201"
         sodipodi:nodetypes="cc" />
      <path
         style="fill:none;stroke:#e3e4e4;stroke-width:2.8;stroke-linecap:butt;stroke-linejoin:miter;stroke-miterlimit:4;stroke-dasharray:none;stroke-opacity:1"
         d="M 29.490794,15.365283 22.153265,8.7147758"
         id="path951-6-2-9-1-2"
         inkscape:transform-center-x="2.319237"
         inkscape:transform-center-y="-8.6754201"
         sodipodi:nodetypes="cc" />
      <path
         style="fill:none;stroke:#e3e4e4;stroke-width:2.8;stroke-linecap:butt;stroke-linejoin:miter;stroke-miterlimit:4;stroke-dasharray:none;stroke-opacity:1"
         d="M 28.838908,22.554406 21.889289,16.086079"
         id="path951-6-2-9-1-2-7"
         inkscape:transform-center-x="2.319237"
         inkscape:transform-center-y="-8.6754201"
         sodipodi:nodetypes="cc" />
    </g>
    <g
       id="g1125"
       transform="translate(7.6662593,3.3727033)">
      <g
         id="g1113"
         transform="translate(-14.450216,-0.55825254)">
        <g
           inkscape:label="Layer 1"
           id="layer1-5"
           transform="matrix(0.74279633,0,0,0.74279633,11.726067,4.9728011)"
           style="fill:#ffffff;fill-opacity:1;stroke:#ffffff;stroke-opacity:1">
          <ellipse
             style="fill:#ffffff;fill-opacity:1;stroke:#ffffff;stroke-width:2.81599;stroke-linecap:round;stroke-linejoin:round;stroke-miterlimit:4;stroke-dasharray:none;stroke-opacity:1;paint-order:markers stroke fill"
             id="path1266"
             cx="16.73649"
             cy="10.646"
             rx="8.2322378"
             ry="7.9562798" />
          <ellipse
             style="fill:#ffffff;fill-opacity:1;stroke:#ffffff;stroke-width:2.816;stroke-linecap:round;stroke-linejoin:round;stroke-miterlimit:4;stroke-dasharray:none;stroke-opacity:1;paint-order:markers stroke fill"
             id="path1268"
             cx="17.380747"
             cy="30.393101"
             rx="12.531609"
             ry="10.905805"
             clip-path="url(#clipPath1293)"
             transform="translate(-0.70902932,-0.70229824)" />
          <path
             style="fill:#ffffff;fill-opacity:1;stroke:#ffffff;stroke-width:3.26501;stroke-linecap:round;stroke-linejoin:round;stroke-miterlimit:4;stroke-dasharray:none;stroke-opacity:1"
             d="m 3.8913666,28.931664 c 0,0 13.9011204,5.073689 25.4965954,-0.0866"
             id="path1270-5" />
        </g>
        <path
           style="fill:#ffffff;fill-opacity:1;stroke:#ffffff;stroke-width:2.24747;stroke-linecap:round;stroke-linejoin:round;stroke-miterlimit:4;stroke-dasharray:none;stroke-opacity:1;paint-order:markers stroke fill"
           d="m 72.658824,103.92269 c -5.000562,-0.23872 -15.539675,-5.932513 -14.438325,-6.54886 0.357533,-0.200086 10.943326,-4.660771 24.607051,-4.782099 21.99974,-0.195348 30.21105,-2.072582 29.98541,-1.484576 -0.13118,0.34185 11.08771,6.757418 11.08771,7.31388 0,0.999305 -16.18904,4.102545 -18.74652,4.301915 -3.76693,0.29365 -27.479885,1.43916 -32.495326,1.19974 z"
           id="path1103"
           transform="scale(0.26458333)"
           sodipodi:nodetypes="sssssss" />
        <path
           style="fill:#ffffff;fill-opacity:1;stroke:#ffffff;stroke-width:2.24747;stroke-linecap:round;stroke-linejoin:round;stroke-miterlimit:4;stroke-dasharray:none;stroke-opacity:1;paint-order:markers stroke fill"
           d="m 109.86305,97.886582 v -1.964286 h 2.71679 c 2.33062,0 2.68596,0.0803 2.5,0.564924 -0.11923,0.310708 -0.21679,1.014843 -0.21679,1.564745 0,0.885018 -0.18219,1.045697 -1.58672,1.399361 -0.87269,0.219748 -1.99769,0.399541 -2.5,0.399541 -0.86891,0 -0.91328,-0.09543 -0.91328,-1.964285 z"
           id="path1105"
           transform="scale(0.26458333)" />
      </g>
      <path
         style="fill:#ffffff;fill-opacity:1;stroke:#ffffff;stroke-width:2.24747;stroke-linecap:round;stroke-linejoin:round;stroke-miterlimit:4;stroke-dasharray:none;stroke-opacity:1;paint-order:markers stroke fill"
         d="m 61.408194,96.133661 c 0.132316,-0.34481 0.240575,-1.015569 0.240575,-1.490575 0,-0.694843 0.183865,-0.863647 0.940707,-0.863647 1.140196,0 3.70215,0.735433 3.70215,1.062738 0,0.129464 -0.924107,0.526485 -2.053572,0.882268 -1.129464,0.355784 -2.282365,0.734464 -2.562003,0.841511 -0.366217,0.140191 -0.44114,0.01927 -0.267857,-0.432295 z"
         id="path1115"
         transform="scale(0.26458333)" />
    </g>
  </g>
</svg>
